<svg width="40" height="41" fill="none" xmlns="http://www.w3.org/2000/svg"><path fill-rule="evenodd" clip-rule="evenodd" d="M30.99 23.961c-1.332 4.284-4.652 7.25-9.07 7.904-6.742.998-13.362-4.114-13.886-10.914-.544-7.056 5.022-12.95 11.968-12.95 1.606 0 3.138.316 4.538.888.486.198 1.036.028 1.284-.432l2.87-5.294c.272-.506.076-1.158-.448-1.394A19.952 19.952 0 0020.008.001C8.764.001-.314 9.273.008 20.587c.294 10.322 8.814 18.958 19.128 19.396 11.092.468 20.292-8.092 20.85-18.938.022-.396.014-2.702.006-4.054a.994.994 0 00-1-.99H20.994a1 1 0 00-1 1v5.96c0 .55.448 1 1 1h9.996z" fill="#231F20"/></svg>