<svg width="36" height="36" fill="none" xmlns="http://www.w3.org/2000/svg"><path fill-rule="evenodd" clip-rule="evenodd" d="M0 4.5C0 2.016 2.016 0 4.5 0S9 2.016 9 4.5 6.984 9 4.5 9A4.502 4.502 0 010 4.5zm24.3 6.3c-6.46 0-11.7 5.21-11.7 11.63V34.2c0 .994.808 1.802 1.802 1.802H18.6c.994 0 1.802-.808 1.802-1.802V22.43c0-2.272 1.968-4.088 4.304-3.854 2.028.202 3.494 2.056 3.494 4.094V34.2c0 .994.808 1.802 1.802 1.802H34.2c.994 0 1.802-.808 1.802-1.802V22.43c0-6.42-5.24-11.628-11.7-11.628zM7.2 12.6H1.8A1.8 1.8 0 000 14.4v19.8c0 .994.808 1.8 1.802 1.8H7.2A1.8 1.8 0 009 34.2V14.4a1.8 1.8 0 00-1.8-1.8z" fill="#231F20"/></svg>