<svg width="36" height="32" fill="none" xmlns="http://www.w3.org/2000/svg"><path fill-rule="evenodd" clip-rule="evenodd" d="M10.154 32C24.646 32 33.03 20.75 33.03 10.07c0-.293 2.06-2.061 2.942-5.747a.882.882 0 00-1.234-1.024c-1.76.808-3.546.168-4.322-.752a7.749 7.749 0 00-11.148-.35c-2.046 1.974-2.914 4.914-2.28 7.72-6.702.478-11.304-2.698-15.088-7.052-.488-.566-1.394-.268-1.496.48-.56 4.164-.736 14.287 9.296 20.102-1.742 2.504-5.152 3.982-8.948 4.616-.84.142-1.04 1.306-.272 1.682a21.846 21.846 0 009.674 2.25" fill="#231F20"/></svg>